<svg width="20" height="17" viewBox="0 0 20 17" fill="none" xmlns="http://www.w3.org/2000/svg">
	<path fill-rule="evenodd" clip-rule="evenodd" d="M10.0001 6.0998C8.65511 6.0998 7.56112 7.17574 7.56112 8.50074C7.56112 8.89154 7.66712 9.26364 7.84712 9.60129L11.1191 6.38035C10.7771 6.20415 10.3951 6.0998 10.0001 6.0998ZM17.3851 0.211153C17.6711 -0.0703842 18.1341 -0.0703842 18.4201 0.211153C18.7061 0.492689 18.7061 0.948464 18.4201 1.23L2.61512 16.7884C2.47212 16.9291 2.28512 17 2.09812 17C1.91012 17 1.72312 16.9291 1.58012 16.7884C1.29412 16.5068 1.29412 16.051 1.58012 15.7705L6.77612 10.6546C6.33712 10.0246 6.09812 9.28136 6.09812 8.50074C6.09812 6.38232 7.84812 4.65963 10.0001 4.65963C10.7871 4.65963 11.5531 4.89785 12.1901 5.32508L14.2241 3.32381C11.3561 1.48693 7.85912 1.64443 5.12712 3.77368C3.68412 4.89096 2.44512 6.52112 1.53212 8.50172C1.93812 9.38669 2.41012 10.2028 2.93612 10.9312C3.17012 11.2551 3.09312 11.7049 2.76412 11.9353C2.63512 12.0259 2.48712 12.0692 2.34012 12.0692C2.11112 12.0692 1.88612 11.9648 1.74312 11.766C1.10112 10.8771 0.534125 9.87397 0.0591255 8.78424C-0.0198744 8.60312 -0.0198744 8.39639 0.0601255 8.21526C1.08112 5.88816 2.51912 3.96071 4.22112 2.64261C7.51912 0.0743217 11.8511 -0.052665 15.2771 2.28724L17.3851 0.211153ZM19.94 8.21418C19.407 7.00436 18.771 5.90971 18.047 4.96371C17.803 4.64575 17.345 4.58177 17.023 4.82097C16.699 5.06117 16.635 5.51202 16.878 5.82998C17.475 6.6106 18.009 7.50739 18.468 8.50064C16.592 12.5662 13.445 14.9829 10 14.9829C9.22001 14.9829 8.44401 14.8579 7.69402 14.6118C7.30902 14.4887 6.89602 14.6895 6.76902 15.0675C6.64102 15.4446 6.84802 15.8521 7.23102 15.9791C8.13002 16.2744 9.06201 16.424 10 16.424C14.127 16.424 17.843 13.5683 19.94 8.78513C20.02 8.604 20.02 8.39629 19.94 8.21418ZM12.3907 8.92757C12.2127 9.90212 11.4287 10.6759 10.4387 10.8521C10.0407 10.9239 9.77671 11.299 9.84871 11.6908C9.91271 12.0383 10.2217 12.2814 10.5677 12.2814C10.6117 12.2814 10.6557 12.2775 10.6997 12.2706C12.2877 11.9861 13.5467 10.7457 13.8307 9.18253C13.9027 8.78976 13.6377 8.41569 13.2397 8.34579C12.8447 8.27492 12.4617 8.53775 12.3907 8.92757Z" fill="#3DD598" />
</svg>
