<svg width="30" height="27" viewBox="0 0 30 27" fill="none" xmlns="http://www.w3.org/2000/svg">
<path fill-rule="evenodd" clip-rule="evenodd" d="M22.4085 0C24.42 0 26.355 0.795 27.7785 2.2215C29.2035 3.645 30 5.565 30 7.575V19.425C30 23.61 26.595 27 22.4085 27H7.59C3.4035 27 0 23.61 0 19.425V7.575C0 3.39 3.3885 0 7.59 0H22.4085ZM24.7949 9.81001L24.9149 9.69001C25.2734 9.25501 25.2734 8.62501 24.8984 8.19001C24.6899 7.96651 24.4034 7.83001 24.1049 7.80001C23.7899 7.78351 23.4899 7.89001 23.2634 8.10001L16.4999 13.5C15.6299 14.2215 14.3834 14.2215 13.4999 13.5L6.74989 8.10001C6.28339 7.75501 5.63839 7.80001 5.24989 8.20501C4.84489 8.61001 4.79989 9.25501 5.14339 9.70501L5.33989 9.90001L12.1649 15.225C13.0049 15.885 14.0234 16.245 15.0899 16.245C16.1534 16.245 17.1899 15.885 18.0284 15.225L24.7949 9.81001Z" fill="#3DD598"/>
</svg>
