<svg width="1024" height="1024" viewBox="0 0 1024 1024" fill="none" xmlns="http://www.w3.org/2000/svg">
<rect width="1024" height="1024" rx="200" fill="#FBC2B5"/>
<path d="M624.978 428.792C630.976 428.792 648.295 428.988 648.91 428.761C649.526 428.534 650.053 428.116 650.412 427.567L664.509 405.791C664.875 405.218 665.421 404.783 666.062 404.554C666.703 404.326 667.402 404.318 668.048 404.532C708.354 417.587 746.411 436.767 780.883 461.399C780.883 461.399 792.881 474.596 800.799 427.267C800.886 426.635 801.173 426.048 801.616 425.59C802.06 425.132 802.638 424.828 803.267 424.721C803.895 424.614 804.541 424.71 805.111 424.995C805.682 425.28 806.146 425.74 806.438 426.307C813.276 439.384 824.854 468.358 807.277 495.772C807.041 496.204 806.917 496.689 806.917 497.181C806.917 497.674 807.041 498.159 807.277 498.591C813.696 513.228 862.225 636.081 747.291 774.65C747.002 775.008 746.636 775.297 746.221 775.494C745.806 775.691 745.351 775.792 744.891 775.79H680.165C679.719 775.788 679.278 775.689 678.874 775.498C678.47 775.308 678.113 775.032 677.827 774.689C677.541 774.346 677.334 773.945 677.22 773.513C677.106 773.081 677.087 772.63 677.166 772.191C679.386 762.353 683.465 735.479 673.387 720.362C673.043 719.846 672.544 719.452 671.962 719.236C671.38 719.021 670.745 718.995 670.148 719.162C655.931 723.001 569.61 744.537 525.16 720.542C524.769 720.325 524.335 720.196 523.889 720.164C523.443 720.133 522.996 720.2 522.578 720.36C522.161 720.52 521.783 720.77 521.473 721.091C521.162 721.413 520.926 721.799 520.781 722.222C513.953 744.149 499.588 762.954 480.23 775.31C479.743 775.613 479.183 775.779 478.61 775.79H399.548C399.019 775.79 398.5 775.653 398.04 775.393C397.58 775.132 397.196 774.757 396.924 774.304C396.652 773.851 396.503 773.336 396.489 772.808C396.476 772.279 396.6 771.757 396.848 771.291C400.987 763.612 406.326 744.777 394.329 706.865C394.15 706.296 393.812 705.79 393.355 705.408C392.898 705.025 392.341 704.781 391.749 704.705C375.193 703.146 258.699 688.929 202.551 592.65C202.25 592.185 202.084 591.645 202.071 591.091V552.579C201.952 552.043 201.983 551.485 202.159 550.965C202.336 550.445 202.652 549.984 203.073 549.631C203.493 549.278 204.003 549.048 204.545 548.965C205.088 548.882 205.643 548.949 206.15 549.16C219.107 552.759 260.858 563.197 267.937 548.02C267.937 548.02 292.711 506.029 354.977 462.599C355.442 462.246 355.796 461.767 355.997 461.219C360.616 443.763 347.599 425.107 340.341 416.469C339.97 416.011 339.74 415.455 339.678 414.869C339.616 414.283 339.724 413.691 339.99 413.165C340.257 412.639 340.669 412.201 341.178 411.904C341.687 411.607 342.271 411.463 342.86 411.49C352.577 411.823 362.126 414.12 370.93 418.244C379.735 422.368 387.613 428.233 394.089 435.485C394.517 436.034 395.129 436.41 395.813 436.543C396.497 436.675 397.206 436.555 397.808 436.205C421.614 423.371 446.408 412.458 471.952 403.572C472.571 403.365 473.241 403.357 473.865 403.551C474.489 403.745 475.037 404.13 475.431 404.652L492.947 427.807C493.306 428.268 496.006 427.807 517.001 427.807" stroke="#444444" stroke-width="10" stroke-linecap="round" stroke-linejoin="round"/>
<path d="M325.525 539.202C319.826 539.202 315.207 534.582 315.207 528.884C315.207 523.186 319.826 518.566 325.525 518.566C331.223 518.566 335.843 523.186 335.843 528.884C335.843 534.582 331.223 539.202 325.525 539.202Z" fill="#444444"/>
<rect x="557.346" y="248" width="9.42317" height="58.6678" rx="4.71159" fill="#444444"/>
<rect x="579.988" y="270.642" width="9.42317" height="47.9894" rx="4.71159" fill="#444444"/>
<path d="M526 477.872C539.997 470.873 578.189 461.075 618.98 477.872" stroke="#444444" stroke-width="10" stroke-linecap="round" stroke-linejoin="round"/>
<path d="M622.978 381.617C622.978 410.329 599.702 433.605 570.99 433.605C542.278 433.605 519.003 410.329 519.003 381.617C519.003 352.905 542.278 329.63 570.99 329.63C599.702 329.63 622.978 352.905 622.978 381.617Z" fill="#F5D87B" stroke="#444444" stroke-width="10"/>
</svg>
